<svg version="1.1" id="Layer_1" xmlns="http://www.w3.org/2000/svg" xmlns:xlink="http://www.w3.org/1999/xlink" x="0px" y="0px"
	 width="100%" viewBox="0 0 180 180" enable-background="new 0 0 180 180" xml:space="preserve">
<path fill="#011426" opacity="1.000000" stroke="none" 
	d="
M109.000000,181.000000 
	C72.666672,181.000000 36.833336,181.000000 1.000005,181.000000 
	C1.000003,121.000008 1.000003,61.000011 1.000002,1.000013 
	C60.999989,1.000009 120.999977,1.000009 180.999969,1.000004 
	C180.999985,60.999985 180.999985,120.999969 181.000000,180.999969 
	C157.166672,181.000000 133.333328,181.000000 109.000000,181.000000 
M95.204422,34.977524 
	C94.099510,35.034714 92.994591,35.091904 90.980568,34.975670 
	C84.326050,34.963493 77.660637,35.174641 71.021309,34.850887 
	C67.354202,34.672073 65.489822,35.861507 63.814243,39.193508 
	C51.507648,63.665939 38.951908,88.013016 26.490093,112.407471 
	C21.381340,122.408043 16.310724,132.428101 11.044186,142.790665 
	C20.261826,142.790665 28.854383,142.790665 38.379406,142.988937 
	C39.317165,142.938263 40.254929,142.887589 42.091194,143.010803 
	C49.072403,143.023651 56.059765,142.869049 63.032040,143.125183 
	C66.172989,143.240555 67.639503,142.084488 69.030167,139.331436 
	C82.118103,113.421783 95.383888,87.601990 108.586578,61.750263 
	C113.072952,52.965649 117.525902,44.163960 122.107582,35.146786 
	C112.954941,35.146786 104.486961,35.146786 95.204422,34.977524 
M162.333969,134.168121 
	C152.669327,120.653900 146.495926,104.512329 132.140549,94.454865 
	C134.045547,93.621193 135.735062,92.922287 137.390793,92.150848 
	C150.637924,85.978645 157.238312,73.451080 155.095367,58.578632 
	C153.251663,45.782967 144.144226,37.492737 129.412338,35.438194 
	C128.063248,35.250046 125.784454,35.723091 125.256569,36.644711 
	C122.251839,41.890629 119.647827,47.366070 117.618042,51.364086 
	C121.607468,54.947918 126.071167,57.295605 127.946693,60.965866 
	C132.846497,70.554375 125.860519,81.812866 114.985100,82.872520 
	C111.518105,83.210327 107.989700,82.880707 104.507896,83.122681 
	C103.210205,83.212868 101.324974,83.701241 100.801788,84.626625 
	C97.729050,90.061630 94.979782,95.679520 91.798218,101.864105 
	C95.094276,101.864105 97.597374,102.178741 99.995224,101.809654 
	C110.373962,100.212112 116.989357,104.951408 121.860634,113.698692 
	C126.791763,122.553459 132.215408,131.137939 137.578964,139.743820 
	C138.429016,141.107758 140.069260,142.859436 141.395157,142.903641 
	C149.949097,143.188980 158.517197,143.049652 167.898788,143.049652 
	C165.857834,139.747757 164.315979,137.253311 162.333969,134.168121 
z"/>
<path fill="#FBFBFB" opacity="1.000000" stroke="none" 
	d="
M162.554047,134.463501 
	C164.315979,137.253311 165.857834,139.747757 167.898788,143.049652 
	C158.517197,143.049652 149.949097,143.188980 141.395157,142.903641 
	C140.069260,142.859436 138.429016,141.107758 137.578964,139.743820 
	C132.215408,131.137939 126.791763,122.553459 121.860634,113.698692 
	C116.989357,104.951408 110.373962,100.212112 99.995224,101.809654 
	C97.597374,102.178741 95.094276,101.864105 91.798218,101.864105 
	C94.979782,95.679520 97.729050,90.061630 100.801788,84.626625 
	C101.324974,83.701241 103.210205,83.212868 104.507896,83.122681 
	C107.989700,82.880707 111.518105,83.210327 114.985100,82.872520 
	C125.860519,81.812866 132.846497,70.554375 127.946693,60.965866 
	C126.071167,57.295605 121.607468,54.947918 117.618042,51.364086 
	C119.647827,47.366070 122.251839,41.890629 125.256569,36.644711 
	C125.784454,35.723091 128.063248,35.250046 129.412338,35.438194 
	C144.144226,37.492737 153.251663,45.782967 155.095367,58.578632 
	C157.238312,73.451080 150.637924,85.978645 137.390793,92.150848 
	C135.735062,92.922287 134.045547,93.621193 132.140549,94.454865 
	C146.495926,104.512329 152.669327,120.653900 162.554047,134.463501 
z"/>
<path fill="#FDFDFC" opacity="1.000000" stroke="none" 
	d="
M37.446945,142.790665 
	C28.854383,142.790665 20.261826,142.790665 11.044186,142.790665 
	C16.310724,132.428101 21.381340,122.408043 26.490093,112.407471 
	C38.951908,88.013016 51.507648,63.665939 63.814243,39.193508 
	C65.489822,35.861507 67.354202,34.672073 71.021309,34.850887 
	C77.660637,35.174641 84.326050,34.963493 91.311661,35.376610 
	C81.165512,56.329845 70.652817,76.864174 60.222813,97.440422 
	C52.574650,112.528671 45.034973,127.671928 37.446945,142.790665 
z"/>
<path fill="#FDFDFC" opacity="1.000000" stroke="none" 
	d="
M96.018982,35.146786 
	C104.486961,35.146786 112.954941,35.146786 122.107582,35.146786 
	C117.525902,44.163960 113.072952,52.965649 108.586578,61.750263 
	C95.383888,87.601990 82.118103,113.421783 69.030167,139.331436 
	C67.639503,142.084488 66.172989,143.240555 63.032040,143.125183 
	C56.059765,142.869049 49.072403,143.023651 41.780853,142.620636 
	C42.211849,140.743042 42.941448,139.249603 43.696239,137.769012 
	C61.135498,103.560760 78.577492,69.353905 96.018982,35.146786 
z"/>
<path fill="#FEA26F" opacity="1.000000" stroke="none" 
	d="
M95.611702,35.062157 
	C78.577492,69.353905 61.135498,103.560760 43.696239,137.769012 
	C42.941448,139.249603 42.211849,140.743042 41.331600,142.533691 
	C40.254929,142.887589 39.317165,142.938263 37.913177,142.889801 
	C45.034973,127.671928 52.574650,112.528671 60.222813,97.440422 
	C70.652817,76.864174 81.165512,56.329845 91.766220,35.463318 
	C92.994591,35.091904 94.099510,35.034714 95.611702,35.062157 
z"/>
</svg>