<svg width="197" height="35" viewBox="0 0 197 35" fill="none" xmlns="http://www.w3.org/2000/svg">
<g clip-path="url(#clip0_769_6338)">
<path d="M5.52051 33.0247L11.227 22.2839H5.52051V33.0247Z" fill="#79C300"/>
<path d="M0 22.284H5.52044V0.80249L0 22.284Z" fill="#79C300"/>
<path d="M15.6929 0.555664H10.6687V17.7779H27.3541V13.7655H15.6929V0.555664Z" fill="#002855"/>
<path d="M39.5114 18.3951C46.3344 18.3951 50.8004 15.0617 50.8004 9.19753C50.8004 3.33333 46.3344 0 39.5114 0C32.6884 0 28.2844 3.33333 28.2844 9.19753C28.2844 15 32.6884 18.3951 39.5114 18.3951ZM39.5734 4.1358C43.3571 4.1358 45.7141 5.92592 45.7141 9.19753C45.7141 12.4074 43.3571 14.2593 39.5734 14.2593C35.7897 14.2593 33.4327 12.4074 33.4327 9.19753C33.4327 5.98765 35.7897 4.1358 39.5734 4.1358Z" fill="#002855"/>
<path d="M69.4707 11.1112L59.2362 0.555664H53.9019V17.7779H58.802V6.48159L69.967 17.7779H74.3709V0.555664H69.4707V11.1112Z" fill="#002855"/>
<path d="M98.8096 14.5062H98.8716V7.77778H88.451V11.2963H94.1575V12.8395C92.917 13.9506 91.2422 14.3827 89.1333 14.3827C84.9155 14.3827 82.5584 12.4691 82.5584 9.1358C82.5584 5.80247 84.8534 3.95062 89.0713 3.95062C90.9941 3.82716 92.979 4.50617 94.4056 5.8642L98.0653 3.14815C96.2665 1.48148 93.1651 0 88.8852 0C81.8141 0 77.4722 3.2716 77.4722 9.1358C77.4722 15 81.8761 18.3333 88.9472 18.3333C93.5373 18.3333 96.9488 16.7901 98.8096 14.5062Z" fill="#002855"/>
<path d="M106.997 0.555664H101.973V17.7779H106.997V0.555664Z" fill="#002855"/>
<path d="M121.636 17.7779V4.56801H128.831V0.555664H109.478V4.56801H116.611V17.7779H121.636Z" fill="#002855"/>
<path d="M145.951 9.25937C145.951 12.2841 144.338 14.1976 140.988 14.1976C137.639 14.1976 135.964 12.2841 135.964 9.25937V0.555664H130.94V9.62974C130.94 14.8767 134.538 18.3334 140.988 18.3334C147.439 18.3334 151.037 14.8767 151.037 9.62974V0.555664H145.951V9.25937Z" fill="#002855"/>
<path d="M164.497 0.555664H154.82V17.7779H164.497C171.134 17.7779 175.351 14.6297 175.351 9.19764C175.351 3.76554 171.134 0.555664 164.497 0.555664ZM164.062 13.8273H159.845V4.56801H164.062C167.784 4.56801 170.203 6.17295 170.203 9.19764C170.203 12.2223 167.784 13.7655 164.062 13.8273Z" fill="#002855"/>
<path d="M183.353 13.889V10.8643H194.27V7.22233H183.353V4.38282H196.565V0.555664H178.391V17.7779H196.875V13.9507V13.889H183.353Z" fill="#002855"/>
<path d="M14.7625 25.5557L11.4751 32.7779H12.6536L13.584 30.6791H17.1196L18.05 32.7779H19.2285L16.0031 25.5557H14.7625ZM13.9562 29.8149L15.3208 26.605L16.7474 29.8149H13.9562Z" fill="#002855"/>
<path d="M22.8882 27.3457C22.454 27.3457 22.0819 27.4074 21.7097 27.5926C21.3996 27.7161 21.0894 27.963 20.8413 28.3334V27.5309H19.8489V32.7778H20.9033V29.7531C20.9033 29.2593 21.0894 28.8889 21.3996 28.5803C21.7097 28.2716 22.1439 28.1482 22.6401 28.1482C23.1984 28.1482 23.5705 28.2716 23.8186 28.4568C24.0667 28.7037 24.1908 29.0124 24.1908 29.3827V32.7778C24.1908 32.7778 25.1212 32.7778 25.0592 32.7778V29.1976C25.0592 28.642 24.8731 28.1482 24.5009 27.8395C24.1288 27.5309 23.6325 27.3457 22.8882 27.3457Z" fill="#002855"/>
<path d="M32.4403 25.5557L29.1528 32.7779H30.3934L31.3238 30.6791H34.8594L35.7898 32.7779H36.9683L33.6808 25.5557H32.4403ZM31.6339 29.8149L32.9985 26.605L34.3631 29.8149H31.6339Z" fill="#002855"/>
<path d="M42.9229 28.9505C43.2951 28.8271 43.5432 28.6419 43.7293 28.395C43.9154 28.1481 43.9774 27.8394 43.9774 27.469C43.9774 26.8518 43.7913 26.4197 43.4192 26.111C43.047 25.8024 42.4888 25.6172 41.7444 25.6172H37.7126V32.7777H41.9925C42.6748 32.7777 43.2331 32.5308 43.6673 32.1604C44.1015 31.79 44.2876 31.2962 44.2876 30.6789C44.2876 30.1851 44.1635 29.8147 43.9154 29.5061C43.6673 29.2592 43.3571 29.074 42.9229 28.9505ZM38.8291 26.5431L41.6824 26.6048C42.1166 26.6048 42.4267 26.6666 42.6128 26.8518C42.7989 26.9752 42.9229 27.2839 42.9229 27.5925C42.9229 27.9011 42.7989 28.1481 42.6128 28.3332C42.4267 28.5184 42.1166 28.5801 41.7444 28.5801H38.8291V26.5431ZM42.7989 31.5431C42.5508 31.7283 42.1786 31.8518 41.6824 31.8518H38.8291V29.4443H41.7444C42.1786 29.4443 42.5508 29.5678 42.7989 29.753C43.047 29.9382 43.1711 30.2468 43.1711 30.6172C43.1711 31.0493 43.047 31.3579 42.7989 31.5431Z" fill="#002855"/>
<path d="M46.7066 25.6172H45.6521V32.7777H51.1105V31.8518H46.7066V25.6172Z" fill="#002855"/>
<path d="M59.3602 29.8766H61.7172C61.6552 30.5556 61.4071 31.1111 60.9109 31.4815C60.4146 31.9136 59.7944 32.0988 59.05 32.0988C58.1817 32.0988 57.4994 31.8519 57.0031 31.3581C56.5069 30.8642 56.2588 30.1852 56.2588 29.2593C56.2588 28.642 56.3208 28.1482 56.5689 27.7161C56.755 27.284 57.0652 26.9753 57.4994 26.7284C57.9335 26.4815 58.4298 26.3581 58.988 26.3581C59.6703 26.3581 60.2286 26.4815 60.6007 26.7284C61.0349 27.0371 61.283 27.4074 61.4691 27.9013H62.5856C62.3995 27.0988 61.9653 26.4815 61.3451 26.0494C60.7248 25.6173 59.9184 25.4321 58.926 25.4321C58.3057 25.4321 57.7475 25.5556 57.2513 25.8025C56.755 25.9877 56.3829 26.2963 56.0727 26.6667C55.7626 27.0371 55.5145 27.4692 55.3904 27.9013C55.2664 28.3951 55.2043 28.8272 55.2043 29.3827C55.2043 29.6914 55.2664 30.1235 55.3904 30.4939C55.4525 30.926 55.6385 31.2963 55.8866 31.605C56.1348 31.9136 56.4449 32.2223 56.755 32.4074C57.1272 32.5926 57.4373 32.7778 57.8095 32.8395C58.1196 32.9013 58.5538 32.963 58.988 32.963C59.5463 32.963 60.1045 32.8395 60.5387 32.6544C60.9729 32.4692 61.4071 32.1605 61.7792 31.7284L61.9653 32.7778L62.6476 32.8395V28.9506H59.3602V29.8766Z" fill="#002855"/>
<path d="M65.935 27.6544C65.6249 27.8396 65.3768 28.0865 65.1287 28.5186V27.5309H64.1362V32.7778L65.0046 32.8396V30.1852C65.0046 29.6297 65.1907 29.1976 65.5008 28.889C65.811 28.5803 66.2452 28.4569 66.7414 28.4569C66.9895 28.4569 67.2376 28.5186 67.4857 28.5803V27.4692C67.3617 27.4075 67.1756 27.4075 66.9275 27.4075C66.5553 27.4075 66.2452 27.4692 65.935 27.6544Z" fill="#002855"/>
<path d="M71.0213 27.3457C70.0909 27.3457 69.3465 27.6543 68.7883 28.1482C68.2921 28.642 67.9819 29.321 67.9819 30.1852C67.9819 30.9877 68.2921 31.6667 68.7883 32.2222C69.2845 32.7778 70.0288 33.0247 71.0213 33.0247C71.9517 33.0247 72.696 32.7161 73.2543 32.2222C73.7505 31.7284 74.0606 31.0494 74.0606 30.1852C74.0606 29.321 73.8125 28.642 73.2543 28.1482C72.758 27.5926 72.0137 27.3457 71.0213 27.3457ZM72.572 31.605C72.1998 31.9753 71.7036 32.1605 71.0833 32.1605C70.463 32.1605 69.9668 31.9753 69.5946 31.605C69.2225 31.2346 69.0364 30.8025 69.0364 30.1852C69.0984 29.5679 69.2225 29.0741 69.5946 28.7655C69.9668 28.3951 70.463 28.2099 71.0833 28.2099C71.7036 28.2099 72.1998 28.3951 72.572 28.7655C72.9441 29.0741 73.1302 29.5679 73.1302 30.1852C73.1302 30.7408 72.9441 31.2346 72.572 31.605Z" fill="#002855"/>
<path d="M79.5191 30.5555C79.5191 31.0493 79.3331 31.4814 79.0229 31.7283C78.7128 32.0369 78.2786 32.1604 77.7824 32.1604C77.2241 32.1604 76.852 32.0369 76.6039 31.8517C76.3557 31.6048 76.2317 31.2962 76.2317 30.9258V27.5308H75.2393V31.111C75.2393 31.6666 75.4253 32.1604 75.7975 32.469C76.1697 32.7777 76.7279 32.9629 77.4102 32.9629C77.8444 32.9629 78.2166 32.8394 78.5887 32.7159C78.9609 32.5925 79.271 32.3456 79.5191 31.9752V32.7777H80.5116V27.5308H79.5191V30.5555Z" fill="#002855"/>
<path d="M86.1561 27.7161C85.7219 27.5309 85.2878 27.4075 84.7295 27.4075C84.2953 27.4075 83.9232 27.4692 83.551 27.6544C83.1788 27.8396 82.9307 28.0248 82.7446 28.2717V27.5309H81.7522V34.8149H82.6826V32.0988C82.9307 32.3457 83.1788 32.5927 83.551 32.7161C83.9232 32.9013 84.2953 32.963 84.7295 32.963C85.2257 32.963 85.7219 32.9013 86.1561 32.6544C86.5903 32.4075 86.9625 32.0988 87.2106 31.6667C87.4587 31.2346 87.5828 30.7408 87.5828 30.1852C87.5828 29.6297 87.4587 29.1359 87.2106 28.7038C86.9625 28.2717 86.5903 27.963 86.1561 27.7161ZM86.1561 31.6667C85.784 31.9754 85.3498 32.1606 84.7295 32.1606C84.1092 32.1606 83.675 32.0371 83.3029 31.6667C82.9307 31.2964 82.7446 30.8643 82.7446 30.247C82.7446 29.6297 82.8687 29.1976 83.2409 28.8272C83.551 28.4569 84.0472 28.2717 84.6675 28.2717C85.2878 28.2717 85.784 28.4569 86.2182 28.8272C86.5283 29.1976 86.7144 29.6914 86.7144 30.247C86.6524 30.8643 86.5283 31.3581 86.1561 31.6667Z" fill="#002855"/>
<path d="M95.7703 26.4198C96.4526 26.4198 97.0108 26.605 97.445 26.9136C97.8792 27.284 98.1893 27.7161 98.2514 28.2717H99.3058C99.2438 27.6544 99.0577 27.1606 98.6856 26.7285C98.3754 26.2964 97.9412 25.9877 97.383 25.8025C96.8868 25.6174 96.2665 25.4939 95.7082 25.4939C94.9019 25.4939 94.2196 25.6791 93.6613 25.9877C93.1031 26.3581 92.6689 26.7902 92.3588 27.3457C92.0486 27.9013 91.9246 28.5186 91.9246 29.2593C91.9246 29.8149 91.9866 30.3087 92.1727 30.8025C92.3588 31.2346 92.6069 31.6667 92.917 31.9754C93.2892 32.284 93.6613 32.5309 94.1576 32.7161C94.6538 32.9013 95.15 32.963 95.7082 32.963C96.3905 32.963 97.0108 32.8396 97.507 32.5927C98.0032 32.3457 98.4374 31.9754 98.7476 31.5433C99.0577 31.1112 99.2438 30.6174 99.3058 30.0618L98.1893 30.1235C98.0653 30.7408 97.7551 31.2964 97.3209 31.605C96.8868 31.9136 96.3285 32.0988 95.6462 32.0988C95.088 32.0988 94.6538 32.0371 94.2196 31.7902C93.8474 31.5433 93.5373 31.2346 93.2892 30.8025C93.1031 30.3704 92.979 29.8766 92.979 29.3211C92.979 28.3951 93.2271 27.6544 93.7234 27.1606C94.2196 26.6667 94.9019 26.4198 95.7703 26.4198Z" fill="#002855"/>
<path d="M103.214 27.3457C102.283 27.3457 101.539 27.6543 100.981 28.1482C100.484 28.642 100.174 29.321 100.174 30.1852C100.236 30.9877 100.484 31.6667 100.981 32.2222C101.477 32.7778 102.221 33.0247 103.214 33.0247C104.144 33.0247 104.888 32.7161 105.447 32.2222C105.943 31.7284 106.253 31.0494 106.253 30.1852C106.253 29.321 106.005 28.642 105.447 28.1482C104.95 27.5926 104.206 27.3457 103.214 27.3457ZM104.826 31.605C104.454 31.9753 103.958 32.1605 103.338 32.1605C102.717 32.1605 102.221 31.9753 101.849 31.605C101.477 31.2346 101.291 30.8025 101.291 30.1852C101.291 29.5679 101.477 29.0741 101.849 28.7655C102.221 28.3951 102.717 28.2099 103.338 28.2099C103.958 28.2099 104.454 28.3951 104.826 28.7655C105.199 29.0741 105.385 29.5679 105.385 30.1852C105.385 30.7408 105.199 31.2346 104.826 31.605Z" fill="#002855"/>
<path d="M116.177 28.0864C115.991 27.9013 115.805 27.7778 115.619 27.6543C115.433 27.5309 115.185 27.4692 114.999 27.4074C114.813 27.3457 114.627 27.3457 114.503 27.3457C114.006 27.3457 113.634 27.4074 113.262 27.5926C112.952 27.7778 112.642 28.0247 112.394 28.3334C112.145 28.0247 111.897 27.7778 111.587 27.5926C111.277 27.4074 110.967 27.3457 110.595 27.3457C110.161 27.3457 109.788 27.4692 109.416 27.5926C109.044 27.7161 108.734 27.963 108.486 28.3334V27.6543H107.493V32.9013H108.486V29.8766C108.486 29.3827 108.672 29.0124 108.982 28.7037C109.292 28.3951 109.726 28.2716 110.223 28.2716C110.595 28.2716 110.905 28.3951 111.153 28.5803C111.339 28.7655 111.463 29.0741 111.463 29.5062V32.8395H112.456V29.6297C112.456 29.1976 112.642 28.8272 112.952 28.5803C113.262 28.3334 113.696 28.2099 114.192 28.2099C114.565 28.2099 114.875 28.3334 115.123 28.5185C115.309 28.7037 115.433 29.0124 115.433 29.4445V32.7778L116.549 32.8395V29.2593C116.549 29.0124 116.549 28.8272 116.487 28.642C116.425 28.4568 116.301 28.2716 116.177 28.0864Z" fill="#002855"/>
<path d="M122.132 27.7161C121.698 27.5309 121.264 27.4075 120.705 27.4075C120.271 27.4075 119.899 27.4692 119.527 27.6544C119.155 27.8396 118.907 28.0248 118.72 28.2717V27.5309H117.728V34.8149H118.658V32.0988C118.907 32.3457 119.155 32.5927 119.527 32.7161C119.899 32.9013 120.271 32.963 120.705 32.963C121.202 32.963 121.698 32.9013 122.132 32.6544C122.566 32.4075 122.938 32.0988 123.186 31.6667C123.435 31.2346 123.559 30.7408 123.559 30.1852C123.559 29.6297 123.435 29.1359 123.186 28.7038C122.938 28.2717 122.566 27.963 122.132 27.7161ZM122.132 31.6667C121.76 31.9754 121.326 32.1606 120.705 32.1606C120.085 32.1606 119.651 32.0371 119.279 31.6667C118.907 31.2964 118.72 30.8643 118.72 30.247C118.72 29.6297 118.845 29.1976 119.217 28.8272C119.527 28.4569 120.023 28.2717 120.643 28.2717C121.202 28.2717 121.698 28.4569 122.194 28.8272C122.504 29.1976 122.69 29.6914 122.69 30.247C122.628 30.8643 122.504 31.3581 122.132 31.6667Z" fill="#002855"/>
<path d="M130.258 31.9753C129.947 31.9753 129.823 31.8518 129.823 31.5432V28.7037C129.823 28.2098 129.637 27.8395 129.203 27.5925C128.769 27.3456 128.149 27.2222 127.404 27.2222C126.598 27.2222 125.978 27.3456 125.543 27.6543C125.109 27.9629 124.861 28.4567 124.799 29.074H125.73C125.73 28.7036 125.916 28.4567 126.164 28.2716C126.412 28.0864 126.846 28.0246 127.342 28.0246C127.901 28.0246 128.273 28.0864 128.521 28.2098C128.769 28.395 128.893 28.5802 128.893 28.8888C128.893 29.1357 128.831 29.3209 128.645 29.3827C128.459 29.5061 128.273 29.5678 127.963 29.5678L126.784 29.6913C125.978 29.753 125.419 29.9382 125.047 30.1851C124.675 30.432 124.489 30.8641 124.489 31.358C124.489 31.8518 124.675 32.2222 125.047 32.5308C125.419 32.8395 125.916 32.9629 126.66 32.9629C127.156 32.9629 127.59 32.9012 128.025 32.716C128.459 32.5308 128.769 32.3456 128.955 32.0987C128.955 32.3456 129.079 32.5308 129.203 32.6543C129.327 32.7777 129.513 32.8395 129.823 32.8395H130.196C130.32 32.8395 130.444 32.7777 130.568 32.7777L130.63 31.9753H130.258ZM128.831 30.7407C128.831 31.1728 128.583 31.5432 128.211 31.7901C127.838 32.0987 127.342 32.2222 126.722 32.2222C126.288 32.2222 126.04 32.1604 125.792 31.9753C125.606 31.7901 125.481 31.6049 125.481 31.358C125.481 31.0493 125.606 30.8641 125.792 30.7407C125.978 30.6172 126.288 30.5555 126.722 30.4938L127.838 30.3703C128.149 30.3086 128.397 30.3086 128.521 30.2469C128.645 30.1851 128.769 30.1234 128.831 30.0617V30.7407Z" fill="#002855"/>
<path d="M134.351 27.3457C133.917 27.3457 133.545 27.4074 133.173 27.5926C132.863 27.7161 132.553 27.963 132.304 28.3334V27.5309H131.312V32.7778H132.304V29.7531C132.304 29.2593 132.491 28.8889 132.801 28.5803C133.111 28.2716 133.545 28.1482 134.041 28.1482C134.599 28.1482 134.972 28.2716 135.22 28.4568C135.468 28.7037 135.592 29.0124 135.592 29.3827V32.7778H136.522V29.1976C136.522 28.642 136.336 28.1482 135.964 27.8395C135.592 27.5309 135.096 27.3457 134.351 27.3457Z" fill="#002855"/>
<path d="M140.182 31.6666L138.383 27.5308H137.205L139.624 32.9011L139.438 33.3332C139.251 33.7036 139.127 33.8888 139.003 34.0122C138.879 34.074 138.631 34.1357 138.321 34.1357C138.259 34.1357 138.011 34.074 137.763 34.074V34.9382C138.011 34.9999 138.259 34.9999 138.507 34.9999C138.879 34.9999 139.189 34.9382 139.376 34.8764C139.562 34.8147 139.748 34.6913 139.872 34.5061C139.996 34.3209 140.12 34.074 140.306 33.7036L143.097 27.5308H141.981L140.182 31.6666Z" fill="#002855"/>
</g>
<defs>
<clipPath id="clip0_769_6338">
<rect width="196.875" height="35" fill="white"/>
</clipPath>
</defs>
</svg>
